<?xml version="1.0" encoding="UTF-8"?>
<svg id="Layer_1" xmlns="http://www.w3.org/2000/svg" xmlns:xlink="http://www.w3.org/1999/xlink" version="1.1" viewBox="0 0 639.6 126.9">
  <!-- Generator: Adobe Illustrator 29.1.0, SVG Export Plug-In . SVG Version: 2.1.0 Build 142)  -->
  <defs>
    <style>
      .st0, .st1, .st2, .st3, .st4, .st5, .st6, .st7, .st8, .st9, .st10, .st11, .st12, .st13, .st14, .st15, .st16, .st17, .st18, .st19, .st20, .st21 {
        fill: none;
      }

      .st1 {
        opacity: .8;
        stroke-miterlimit: 1.7;
        stroke-width: 7px;
      }

      .st1, .st2, .st3, .st4, .st5, .st6, .st7, .st8, .st9, .st10, .st11, .st12, .st13, .st14, .st15, .st16, .st17, .st18, .st19, .st20, .st21 {
        isolation: isolate;
        stroke: #f5f5f5;
      }

      .st2 {
        opacity: .8;
        stroke-miterlimit: 1.7;
        stroke-width: 7px;
      }

      .st3 {
        opacity: .9;
        stroke-miterlimit: 1.7;
        stroke-width: 7px;
      }

      .st4 {
        opacity: .7;
        stroke-miterlimit: 1.7;
        stroke-width: 7px;
      }

      .st22 {
        fill: #f6f6f6;
      }

      .st5 {
        opacity: .3;
        stroke-miterlimit: 1.7;
        stroke-width: 7px;
      }

      .st6 {
        opacity: .6;
        stroke-miterlimit: 1.7;
        stroke-width: 7px;
      }

      .st7 {
        opacity: .2;
        stroke-miterlimit: 1.7;
        stroke-width: 7px;
      }

      .st8 {
        opacity: .9;
        stroke-miterlimit: 1.7;
        stroke-width: 7px;
      }

      .st9 {
        opacity: .2;
        stroke-miterlimit: 1.7;
        stroke-width: 7px;
      }

      .st10 {
        opacity: .5;
        stroke-miterlimit: 1.7;
        stroke-width: 7px;
      }

      .st11 {
        opacity: .6;
        stroke-miterlimit: 1.7;
        stroke-width: 7px;
      }

      .st12 {
        opacity: .1;
        stroke-miterlimit: 1.7;
        stroke-width: 7px;
      }

      .st13 {
        opacity: 0;
        stroke-miterlimit: 1.7;
        stroke-width: 7px;
      }

      .st14 {
        opacity: .3;
        stroke-miterlimit: 1.7;
        stroke-width: 7px;
      }

      .st15 {
        opacity: .4;
        stroke-miterlimit: 1.7;
        stroke-width: 7px;
      }

      .st16 {
        opacity: .5;
        stroke-miterlimit: 1.7;
        stroke-width: 7px;
      }

      .st17 {
        opacity: .4;
        stroke-miterlimit: 1.7;
        stroke-width: 7px;
      }

      .st18 {
        opacity: .9;
        stroke-miterlimit: 1.7;
        stroke-width: 7px;
      }

      .st19 {
        opacity: .6;
        stroke-miterlimit: 1.7;
        stroke-width: 7px;
      }

      .st23 {
        clip-path: url(#clippath);
      }

      .st20 {
        opacity: .1;
        stroke-miterlimit: 1.7;
        stroke-width: 7px;
      }

      .st21 {
        opacity: .7;
        stroke-miterlimit: 1.7;
        stroke-width: 7px;
      }
    </style>
    <clipPath id="clippath">
      <ellipse class="st0" cx="65.8" cy="63.5" rx="63.5" ry="63.4" transform="translate(-25 52.7) rotate(-37.2)"/>
    </clipPath>
  </defs>
  <g class="st23">
    <g id="g72442">
      <path id="path72398" class="st13" d="M8.4-541.8c27.4-11.8,59.1-8,83,9.9l424.6,317.5c23.9,17.9,36.5,47.1,32.9,76.8l-62.7,526.5c-3.5,29.6-22.6,55.2-50,66.9L-51,664.7c-27.4,11.8-59.1,8-83-9.9l-424.6-317.5c-23.9-17.9-36.5-47.1-32.9-76.8l62.7-526.5c3.5-29.6,22.6-55.2,50-66.9L8.4-541.8Z"/>
      <path id="path72400" class="st12" d="M-13.1-515c25.8-12.1,56.1-9.6,79.5,6.7L482-219.7c23.4,16.3,36.4,43.8,34,72.2l-42.2,504.3c-2.4,28.4-19.7,53.4-45.5,65.5L-29.6,637.9c-25.8,12.1-56.1,9.6-79.5-6.7l-415.6-288.7c-23.4-16.3-36.4-43.8-34-72.2l42.2-504.3c2.4-28.4,19.7-53.4,45.5-65.5L-13.1-515Z"/>
      <path id="path72402" class="st20" d="M-32.6-487.5c24.1-12.4,53.1-11,75.9,3.7L448.4-222.8c22.8,14.7,36.1,40.4,34.7,67.5l-23.4,481.4c-1.3,27.1-17,51.4-41.1,63.9L-10,610.4c-24.1,12.4-53.1,11-75.9-3.7l-405.2-261c-22.8-14.7-36.1-40.4-34.7-67.5l23.4-481.4c1.3-27.1,17-51.4,41.1-63.9L-32.6-487.5Z"/>
      <path id="path72404" class="st7" d="M-50.2-459.4c22.5-12.6,50-12.2,72.2,1l393.4,234.4c22.1,13.2,35.6,37.2,35.2,63l-6.3,457.8c-.4,25.8-14.4,49.4-36.9,62L7.6,582.2c-22.5,12.6-50,12.2-72.2-1l-393.4-234.4c-22.1-13.2-35.6-37.2-35.2-63l6.3-457.8c.4-25.8,14.4-49.4,36.9-62L-50.2-459.4Z"/>
      <path id="path72406" class="st9" d="M-65.9-430.7c20.9-12.7,46.9-13.2,68.3-1.4l380.2,208.9c21.4,11.8,34.9,34,35.4,58.5l9.2,433.7c.5,24.4-12,47.3-32.9,59.9L23.3,553.6c-20.9,12.7-46.9,13.2-68.3,1.4l-380.2-208.9c-21.4-11.8-34.9-34-35.4-58.5l-9.2-433.7c-.5-24.4,12-47.3,32.9-59.9L-65.9-430.7Z"/>
      <path id="path72408" class="st5" d="M-79.6-401.6c19.3-12.6,43.9-14,64.5-3.6l365.7,184.6c20.6,10.4,34.1,31,35.4,54l23,409c1.3,23-9.8,45-29.1,57.6L37,524.5c-19.3,12.6-43.9,14-64.5,3.6l-365.7-184.6c-20.6-10.4-34.1-31-35.4-54l-23-409c-1.3-23,9.8-45,29.1-57.6L-79.6-401.6Z"/>
      <path id="path72410" class="st14" d="M-91.4-372.2c17.7-12.5,40.8-14.6,60.5-5.5l350.1,161.7c19.7,9.1,33.1,28,35,49.6l35,384c2,21.6-7.7,42.7-25.5,55.2L48.7,495.1c-17.7,12.5-40.8,14.6-60.5,5.5l-350.1-161.7c-19.7-9.1-33.1-28-35-49.6l-35-384c-2-21.6,7.7-42.7,25.5-55.2L-91.4-372.2Z"/>
      <path id="path72412" class="st15" d="M-101.2-342.6c16.2-12.3,37.8-15,56.5-7.1l333.3,140c18.8,7.9,31.9,25.2,34.5,45.4l45.4,358.6c2.6,20.2-5.9,40.2-22.1,52.5L58.5,465.4c-16.2,12.3-37.8,15-56.5,7.2l-333.3-140c-18.8-7.9-31.9-25.2-34.5-45.4l-45.4-358.6c-2.6-20.2,5.9-40.2,22.1-52.5L-101.2-342.6Z"/>
      <path id="path72414" class="st17" d="M-109-312.8c14.7-12,34.7-15.3,52.5-8.5l315.4,119.7c17.8,6.7,30.6,22.4,33.6,41.2l54,333c3,18.8-4.2,37.7-18.9,49.7L66.3,435.7c-14.7,12-34.7,15.3-52.5,8.5l-315.4-119.7c-17.8-6.7-30.6-22.4-33.6-41.2l-54-333c-3-18.8,4.2-37.7,18.9-49.7L-109-312.8Z"/>
      <path id="path72416" class="st10" d="M-114.8-283c13.3-11.6,31.7-15.3,48.4-9.6l296.6,100.9c16.7,5.7,29.1,19.8,32.5,37.1l60.9,307.3c3.4,17.3-2.6,35.1-15.9,46.7l-235.7,206.4c-13.3,11.6-31.7,15.3-48.4,9.6l-296.6-100.9c-16.7-5.7-29.1-19.8-32.5-37.1L-366.3-29.9c-3.4-17.3,2.6-35.1,15.9-46.7l235.7-206.4Z"/>
      <path id="path72418" class="st16" d="M-118.6-253.3c11.9-11.1,28.8-15.1,44.4-10.4l276.9,83.5c15.6,4.7,27.5,17.4,31.2,33.2l66.1,281.5c3.7,15.9-1.3,32.5-13.2,43.6l-210.8,198c-11.9,11.1-28.8,15.1-44.4,10.4l-276.9-83.5c-15.6-4.7-27.5-17.4-31.2-33.2L-342.6-11.7c-3.7-15.9,1.3-32.5,13.2-43.6L-118.6-253.3Z"/>
      <path id="path72420" class="st11" d="M-120.5-223.8c10.5-10.6,25.9-14.8,40.3-11l256.3,67.7c14.4,3.8,25.7,15,29.7,29.4l69.6,255.8c3.9,14.4-.1,29.8-10.7,40.4l-186.7,188.1c-10.5,10.6-25.9,14.8-40.3,11l-256.3-67.7c-14.4-3.8-25.7-15-29.7-29.4L-317.9,4.7c-3.9-14.4.1-29.8,10.7-40.4L-120.5-223.8Z"/>
      <path id="path72422" class="st19" d="M-120.5-194.6c9.2-10,23-14.2,36.3-11.2l235,53.3c13.2,3,23.9,12.8,27.9,25.8l71.3,230.2c4,13,.8,27.1-8.4,37l-163.7,176.9c-9.2,10-23,14.2-36.3,11.2l-235-53.3c-13.2-3-23.9-12.8-27.9-25.8L-292.6,19.3c-4-13-.8-27.1,8.4-37L-120.5-194.6Z"/>
      <path id="path72424" class="st6" d="M-118.6-165.7c8-9.2,20.3-13.5,32.3-11.2l213.1,40.6c12,2.3,21.9,10.8,25.9,22.3l71.4,204.8c4,11.5,1.6,24.3-6.4,33.6l-141.7,164.2c-8,9.2-20.3,13.5-32.3,11.2l-213.1-40.6c-12-2.3-21.9-10.8-25.9-22.3l-71.4-204.8c-4-11.5-1.6-24.3,6.4-33.6L-118.6-165.7Z"/>
      <path id="path72426" class="st4" d="M-114.8-137.3c6.8-8.5,17.6-12.7,28.3-11l190.5,29.5c10.7,1.7,19.8,8.9,23.7,19l69.8,179.7c3.9,10.1,2.2,21.6-4.6,30l-120.8,150.3c-6.8,8.5-17.6,12.7-28.3,11l-190.5-29.5c-10.7-1.7-19.8-8.9-23.7-19L-240.2,43c-3.9-10.1-2.2-21.6,4.6-30l120.8-150.3Z"/>
      <path id="path72428" class="st21" d="M-109.1-109.5c5.7-7.6,15-11.6,24.4-10.5l167.5,19.9c9.4,1.1,17.5,7.2,21.3,15.9l66.5,155c3.7,8.7,2.5,18.8-3.1,26.4l-101,135.1c-5.7,7.6-15,11.6-24.4,10.5l-167.5-19.9c-9.4-1.1-17.5-7.2-21.3-15.9L-213.3,52c-3.7-8.7-2.5-18.8,3.1-26.4L-109.1-109.5Z"/>
      <path id="path72430" class="st2" d="M-101.6-82.4c4.6-6.7,12.5-10.4,20.6-9.7l144.1,12.1c8.1.7,15.2,5.6,18.7,13l61.6,130.8c3.5,7.4,2.7,16-1.9,22.7l-82.5,118.8c-4.6,6.7-12.5,10.4-20.6,9.7l-144.1-12.1c-8.1-.7-15.2-5.6-18.7-13l-61.6-130.8c-3.5-7.4-2.7-16,1.9-22.7l82.5-118.8Z"/>
      <path id="path72432" class="st1" d="M-92.4-56c3.7-5.7,10.1-9,16.9-8.7l120.4,5.9c6.8.3,12.9,4.2,16,10.3l55.1,107.2c3.1,6,2.8,13.3-.9,19l-65.3,101.3c-3.7,5.7-10.1,9-16.9,8.7l-120.4-5.9c-6.8-.3-12.9-4.2-16-10.3l-55.1-107.2c-3.1-6-2.8-13.3.9-19L-92.4-56Z"/>
      <path id="path72434" class="st18" d="M-81.4-30.5c2.8-4.7,7.8-7.5,13.3-7.4l96.4,1.3c5.4,0,10.4,3,13.1,7.8l47,84.1c2.6,4.7,2.6,10.5-.2,15.2l-49.3,82.8c-2.8,4.7-7.8,7.5-13.3,7.4l-96.4-1.3c-5.4,0-10.4-3-13.1-7.8l-47-84.1c-2.6-4.7-2.6-10.5.2-15.2L-81.4-30.5Z"/>
      <path id="path72436" class="st8" d="M-68.8-5.9c2-3.6,5.7-5.8,9.7-5.9l72.3-1.5c4.1,0,7.9,2,10,5.5l37.5,61.8c2.1,3.5,2.2,7.8.2,11.4l-34.8,63.4c-2,3.6-5.7,5.8-9.7,5.9l-72.3,1.5c-4.1,0-7.9-2-10-5.5l-37.5-61.8c-2.1-3.5-2.2-7.8-.2-11.4L-68.8-5.9Z"/>
      <path id="path72438" class="st3" d="M-54.5,17.7c1.2-2.4,3.6-4,6.4-4.2L0,10.8c2.7-.2,5.3,1.2,6.8,3.4l26.4,40.3c1.5,2.3,1.6,5.2.4,7.6l-21.7,43c-1.2,2.4-3.6,4-6.4,4.2l-48.1,2.7c-2.7.2-5.3-1.2-6.8-3.4l-26.4-40.3c-1.5-2.3-1.6-5.2-.4-7.6l21.7-43Z"/>
    </g>
  </g>
  <g>
    <path class="st22" d="M156.3,2.3h8.4v120.1h-8.4V2.3Z"/>
    <path class="st22" d="M199.2,34.9h6.8l.9,13.6h.4c8.9-8.9,18-15.8,30.1-15.8,18.1,0,26.5,11,26.5,33.6v56.2h-8.1v-55.1c0-18.6-5.9-27.4-19.9-27.4s-18,5.5-28.6,16.4v66h-8.1V34.9Z"/>
    <path class="st22" d="M298.2,98.3v-56.3h-13.7v-6.3l13.9-.8,1-25.3h6.9v25.3h25.4v7h-25.4v56.9c0,11.2,2.8,18.7,14.9,18.7s7.8-1.4,11-2.8l2.1,6.5c-5.1,1.8-10.7,3.3-14.3,3.3-16.8,0-21.7-10.7-21.7-26.4Z"/>
    <path class="st22" d="M353.1,34.9h6.8l.9,16.3h.4c5.9-10.8,14.5-18.5,24.9-18.5s5.8.4,8.7,1.8l-1.8,7.3c-3-1.1-4.6-1.5-7.9-1.5-7.9,0-17.2,6-23.9,22.5v59.5h-8.1V34.9Z"/>
    <path class="st22" d="M400.7,100.6c0-19.5,17.5-28.7,56.5-33,.3-13.5-3.4-27.9-20.6-27.9s-22,5.8-27.9,10.3l-3.7-6c6.2-4.4,18.3-11.4,32.6-11.4,20.7,0,27.7,15.1,27.7,33.8v55.9h-6.8l-.9-11.4h-.4c-8.9,7.2-19.6,13.6-31.1,13.6s-25.4-7.5-25.4-24ZM457.2,103.5v-29.8c-36,4.2-48.2,12.5-48.2,26.5s8.5,17.4,18.6,17.4,18.9-4.8,29.7-14.1Z"/>
    <path class="st22" d="M489.2,78.8c0-29.3,18.7-46.1,40-46.1s19.7,5.3,25.6,10.8l-4.7,5.6c-5.7-5.3-12.2-9.3-20.7-9.3-17.9,0-31.7,16-31.7,39s12.6,38.7,31.6,38.7,17.4-4.5,23.4-10.1l4.2,5.7c-7.5,6.7-16.8,11.6-28,11.6-22.6,0-39.7-16.8-39.7-45.8Z"/>
    <path class="st22" d="M567.9,78.8c0-28.5,18.6-46.1,38.2-46.1s33.5,14.8,33.5,40.5,0,4.4-.5,6.6h-63c.3,22.1,13.2,37.9,33,37.9s17-3.1,23.5-7.8l3.3,6.1c-6.9,4.3-14.8,8.6-27.6,8.6-22.4,0-40.5-17.2-40.5-45.8ZM632,73.1c0-22.4-10.1-33.5-25.9-33.5s-28.2,12.5-30,33.5h55.9Z"/>
  </g>
</svg>